<?xml version="1.0" encoding="iso-8859-1"?>
<!-- Generator: Adobe Illustrator 16.0.0, SVG Export Plug-In . SVG Version: 6.00 Build 0)  -->
<!DOCTYPE svg PUBLIC "-//W3C//DTD SVG 1.1//EN" "http://www.w3.org/Graphics/SVG/1.1/DTD/svg11.dtd">
<svg version="1.1" id="Capa_1" xmlns="http://www.w3.org/2000/svg" xmlns:xlink="http://www.w3.org/1999/xlink" x="0px" y="0px"
	 width="45.996px" height="45.996px" viewBox="0 0 45.996 45.996" style="enable-background:new 0 0 45.996 45.996;"
	 xml:space="preserve">
<g>
	<g>
		<path d="M33.793,5.688C33.424,5.5,32.99,5.49,32.612,5.661c-0.376,0.172-0.655,0.506-0.755,0.908l-0.041,0.166
			c-0.15,0.609,0.135,1.241,0.691,1.53c2.054,1.064,3.318,3.252,3.195,5.574c-0.033,0.648,0.396,1.231,1.026,1.388l0.167,0.042
			c0.393,0.097,0.807,0.015,1.132-0.226c0.325-0.24,0.526-0.611,0.55-1.015C38.777,10.548,36.877,7.267,33.793,5.688z"/>
		<path d="M35.043,0.093c-0.362-0.142-0.771-0.121-1.116,0.059c-0.347,0.18-0.601,0.499-0.695,0.877L33.19,1.194
			c-0.165,0.661,0.187,1.338,0.82,1.587c4.931,1.939,7.942,7.041,7.218,12.312c-0.094,0.686,0.343,1.334,1.016,1.5l0.166,0.042
			c0.373,0.092,0.769,0.022,1.086-0.194c0.319-0.215,0.53-0.556,0.584-0.938C44.998,8.904,41.225,2.511,35.043,0.093z"/>
		<path d="M23.926,7.513H11.369c-5.317,0-9.589,4.285-9.589,9.603l0,0v19.658c0,1.901,1.139,3.522,2.848,4.144v1.514
			c-0.001,1.972,1.6,3.564,3.572,3.564h0.562c1.972,0,3.595-1.593,3.595-3.565v-1.234h10.577v1.235c0,1.973,1.589,3.564,3.561,3.564
			h0.562c1.972,0,3.605-1.593,3.605-3.564v-1.516c1.627-0.621,2.849-2.241,2.849-4.143V17.076l0,0
			C33.51,11.78,29.222,7.513,23.926,7.513z M8.721,37.176c-1.771,0-3.208-1.437-3.208-3.21c0-1.772,1.437-3.209,3.208-3.209
			c1.773,0,3.21,1.438,3.21,3.209C11.931,35.738,10.494,37.176,8.721,37.176z M7.718,25.819c-1.174,0-2.114-0.989-2.114-2.164V18.36
			c0-3.346,2.701-6.047,6.046-6.047h11.955c3.347,0,6.081,2.701,6.081,6.047v5.295c0,1.174-0.975,2.164-2.148,2.164H7.718z
			 M26.535,37.176c-1.773,0-3.21-1.437-3.21-3.21c0-1.772,1.437-3.209,3.21-3.209c1.771,0,3.209,1.438,3.209,3.209
			C29.744,35.738,28.307,37.176,26.535,37.176z"/>
	</g>
</g>
<g>
</g>
<g>
</g>
<g>
</g>
<g>
</g>
<g>
</g>
<g>
</g>
<g>
</g>
<g>
</g>
<g>
</g>
<g>
</g>
<g>
</g>
<g>
</g>
<g>
</g>
<g>
</g>
<g>
</g>
</svg>
